<svg
  xmlns="http://www.w3.org/2000/svg"
  version="1.1"
  width="200"
  height="40"
>
  <g transform="scale(0.5)">
    <g transform="translate(88.76276784691188, -30.323899965623923) scale(4.1133952102669875)">
      <path d="M7.76 11.58 c1.28 0.06 2.58 0.06 3.9 0 l0 0.38 c-1.28 0.14 -1.7 0.24 -1.7 0.74 l0 11.3 l-0.36 0 l-7.04 -11.08 l0 9.96 c0 0.5 0.42 0.6 1.64 0.74 l0 0.38 c-1.28 -0.06 -2.56 -0.06 -3.9 0 l0 -0.38 c1.36 -0.14 1.72 -0.24 1.72 -0.74 l0 -10.14 c0 -0.58 -0.46 -0.66 -1.48 -0.78 l0 -0.38 c0.98 0.06 1.94 0.06 2.94 0 l5.94 9.44 l0 -8.32 c0 -0.5 -0.36 -0.6 -1.66 -0.74 l0 -0.38 z M20.14 21.92 c0.08 0 0.18 0.08 0.14 0.22 c-0.36 1.06 -1.44 2.06 -3.22 2.06 c-2.54 0 -4.5 -1.82 -4.5 -5.16 c0 -3.26 1.98 -5.22 4.32 -5.22 c1.9 0 3.82 1.3 3.82 4.22 c0 0.56 -0.2 0.9 -0.76 0.9 l-5.7 0 c0 3.2 1.36 4.8 3 4.8 c0.96 0 1.74 -0.44 2.26 -1.52 c0.08 -0.16 0.14 -0.3 0.32 -0.3 l0.32 0 z M19.26 18.54 c0 -2.68 -0.72 -4.3 -2.36 -4.3 s-2.64 1.64 -2.66 4.3 l5.02 0 z M33.3 13.98 l3.48 0 l0 0.38 l-0.56 0.1 c-0.28 0.08 -0.9 0.2 -1.16 0.98 l-3.08 8.56 l-0.1 0 l-2.8 -7.68 l-2.74 7.68 l-0.12 0 l-3.12 -8.64 c-0.18 -0.48 -0.44 -0.8 -0.9 -0.9 l-0.6 -0.1 l0 -0.38 l3.9 0 l0 0.4 l-0.62 0.08 c-0.46 0.06 -0.44 0.52 -0.32 0.9 l2.18 6.26 l2.12 -5.94 l-0.12 -0.32 c-0.16 -0.48 -0.44 -0.86 -0.86 -0.9 l-0.52 -0.08 l0 -0.4 l3.7 0 l0 0.4 l-0.54 0.08 c-0.44 0.06 -0.44 0.52 -0.3 0.9 l2.18 6.26 l2.18 -6.18 c0.16 -0.42 0.04 -0.86 -0.8 -0.98 l-0.48 -0.08 l0 -0.4 z M44.199999999999996 21.44 c0 -1.84 -1.64 -2.54 -3.04 -3.14 c-1.94 -0.86 -3.5 -1.9 -3.5 -3.84 c0 -1.68 1.22 -3.2 3.62 -3.2 c1.52 0 1.96 0.44 2.42 0.44 c0.2 0 0.34 0 0.44 -0.28 l0.38 0 l0.12 2.5 l-0.24 -0.02 c-0.16 -0.02 -0.22 -0.06 -0.3 -0.24 c-0.46 -1.02 -1.54 -1.94 -2.92 -1.94 c-1.46 0 -2.3 1.04 -2.3 2.24 c0 1.44 0.92 2.08 2.54 2.84 c1.7 0.8 4.18 1.68 4.18 4.1 c0 2.02 -1.86 3.34 -3.92 3.34 c-1.58 0 -2.42 -0.74 -2.96 -0.74 c-0.24 0 -0.46 0.18 -0.54 0.46 l-0.44 0 l-0.16 -2.66 l0.4 0 c0.1 0 0.14 0.08 0.24 0.26 c0.54 1.08 1.5 2.2 3.32 2.2 c1.68 0 2.66 -0.98 2.66 -2.32 z M51.25999999999999 23.36 c-0.26 0.34 -0.94 0.78 -1.7 0.78 c-1.14 0 -2.06 -0.52 -2.06 -2.28 l0 -7.4 l-0.96 0 c-0.06 0 -0.14 -0.06 -0.14 -0.12 l0 -0.24 c0 -0.06 0.08 -0.12 0.14 -0.12 c1.12 0 1.6 -0.78 1.88 -2.72 l0.46 0 l0 2.72 l2.3 0 c0.06 0 0.14 0.06 0.14 0.12 l0 0.24 c0 0.06 -0.08 0.12 -0.14 0.12 l-2.3 0 l0 7.78 c0 0.64 0.26 1.3 1.08 1.3 c0.7 0 1.12 -0.48 1.3 -0.78 l0 0.6 z M59.739999999999995 22.4 c0 0.66 0.36 0.78 1.14 0.72 l0 0.42 c-1.38 0.3 -1.74 0.68 -2.24 0.68 c-0.18 0 -0.3 -0.08 -0.3 -0.32 l0.08 -1.56 c-0.48 0.82 -1.58 1.88 -3.12 1.88 c-1.24 0 -2.88 -0.6 -2.88 -2.52 c0 -1.66 0.96 -2.96 5.92 -4 l0.02 -0.28 c0.02 -2.16 0.08 -3.18 -1.2 -3.18 c-3.34 0 -1.94 2.92 -3.26 2.92 c-0.48 0 -0.72 -0.32 -0.72 -0.72 c0 -1.42 1.74 -2.64 3.94 -2.64 c2.42 0 2.62 1 2.62 3.46 l0 5.14 z M55.71999999999999 23.6 c1.4 0 2.32 -1.32 2.62 -1.92 l0 -3.5 c-4.04 0.92 -4.38 2.5 -4.38 3.48 c0 1.18 0.66 1.94 1.76 1.94 z M66.89999999999999 13.78 c1.02 0 1.58 0.44 1.58 0.94 c0 0.44 -0.18 0.84 -0.72 0.84 c-0.94 0 -0.6 -1.04 -1.7 -1.04 c-1.12 0 -1.78 1.56 -1.96 1.86 l0 6.5 c0 0.5 0.58 0.66 1.1 0.74 l0 0.38 c-1.22 -0.1 -2.4 -0.1 -3.64 0 l0 -0.38 c0.64 -0.08 1.18 -0.24 1.18 -0.74 l0 -7.24 c0 -0.62 -0.36 -0.82 -1.16 -0.74 l0 -0.38 c1.3 -0.18 1.84 -0.72 2.18 -0.72 c0.2 0 0.36 0.12 0.34 0.34 l-0.3 1.88 c0.68 -1.22 1.52 -2.24 3.1 -2.24 z " />
    </g>
    <g transform="translate(8.029466894336625, 7.698763013432696) scale(0.7426332764158434)">
      <g transform="translate(0.000000,100.000000) scale(0.100000,-0.100000)">
        <path d="M482 947 c-16 -20 -50 -91 -82 -173 -23 -57 -28 -79 -19 -85 7 -4 9 -14 6 -22 -4 -11 -27 -15 -99 -17 -51 -1 -106 -4 -123 -5 -16 -2 -43 -4 -58 -4 -24 -1 -26 -3 -17 -21 6 -11 16 -19 22 -17 6 1 12 -3 15 -9 2 -6 -10 -14 -27 -18 -27 -5 -60 -26 -60 -39 0 -2 18 -3 40 -2 22 1 37 -1 35 -5 -7 -11 130 -130 149 -130 19 0 19 -1 5 -37 -6 -15 -13 -48 -16 -73 -7 -53 -34 -120 -57 -139 -9 -7 -16 -18 -16 -24 0 -5 10 -2 22 9 20 18 21 18 15 1 -5 -13 -2 -17 11 -15 12 2 16 -3 14 -16 -3 -18 0 -17 30 7 18 15 43 32 55 38 38 20 141 127 145 151 4 32 35 35 58 5 15 -18 28 -24 50 -23 18 1 36 -4 43 -13 11 -14 10 -14 -8 -2 -19 14 -19 14 -4 -3 9 -9 23 -18 32 -20 9 -1 28 -13 42 -26 l24 -23 -9 33 c-7 23 -6 30 1 23 5 -5 11 -22 13 -37 3 -31 12 -41 43 -51 18 -5 22 -3 17 9 -3 8 -11 14 -17 13 -5 -1 -12 16 -14 38 l-4 40 17 -32 c9 -18 20 -33 25 -33 7 0 -9 46 -31 89 -28 55 -59 188 -40 176 4 -3 35 19 67 48 33 30 81 69 107 87 26 19 42 36 36 38 -7 3 -3 13 11 28 12 13 21 26 18 28 -8 9 -99 12 -107 4 -9 -9 -107 -31 -137 -31 -11 1 -30 4 -42 8 -15 5 -23 3 -23 -4 0 -6 9 -11 21 -11 24 0 18 -15 -9 -22 -25 -7 -59 61 -103 204 -33 105 -48 129 -67 105z m97 -278 c1 -18 45 -69 60 -69 5 0 11 4 13 9 2 5 19 12 38 15 23 5 0 -11 -70 -47 -93 -48 -140 -61 -125 -37 3 5 8 49 11 97 3 49 7 97 9 108 2 11 4 29 5 40 2 22 58 -88 59 -116z m301 -29 c-14 -26 -56 -54 -69 -46 -6 4 -15 -3 -21 -14 -15 -27 -68 -60 -100 -61 -14 0 -19 -3 -12 -6 18 -7 15 -17 -13 -47 -30 -32 -32 -46 -6 -39 16 4 20 -3 26 -49 4 -29 7 -55 7 -58 0 -3 5 -14 11 -25 9 -17 8 -18 -5 -8 -8 7 -19 9 -23 5 -5 -4 -5 -2 -2 4 4 6 -5 22 -19 35 -33 31 -93 106 -76 96 25 -16 11 10 -18 32 -29 21 -34 46 -7 35 7 -2 37 12 67 31 30 19 61 35 70 35 8 0 26 7 40 15 14 8 34 19 45 25 11 6 38 21 60 34 50 30 58 31 45 6z m-374 -185 c-3 -8 1 -18 8 -22 7 -5 18 -18 25 -31 7 -13 17 -20 24 -16 7 4 9 4 5 -1 -4 -4 0 -21 8 -37 17 -32 13 -45 -8 -32 -7 5 -29 14 -48 21 -34 12 -36 11 -74 -25 l-39 -37 33 42 c48 62 28 65 -30 5 -45 -47 -56 -54 -76 -51 -10 1 -23 -24 -17 -34 3 -4 14 0 25 10 20 18 21 18 7 -4 -8 -13 -16 -23 -19 -24 -30 -4 -44 -9 -54 -19 -8 -8 -6 -9 7 -4 24 9 13 -16 -18 -39 -20 -14 -24 -15 -19 -2 3 8 10 15 16 15 5 0 8 6 7 13 -4 30 4 46 47 92 71 78 104 122 96 129 -4 4 -2 6 3 4 6 -1 21 7 35 20 13 12 30 22 37 22 7 0 13 5 13 10 0 6 3 10 6 10 3 0 4 -7 0 -15z" />
      </g>
    </g>
  </g>
</svg>